<svg xmlns="http://www.w3.org/2000/svg" width="97" height="18" viewBox="0 0 97 18" fill="none"><g clip-path="url(#clip0_24773_19400)"><path d="M2.84239 2.60633L7.3636 0L11.8848 2.60633L10.2226 3.56917L7.3636 1.92569L4.5046 3.56917L2.84239 2.60633ZM11.8848 5.89329L10.2226 4.93044L7.3636 6.57392L4.5046 4.93044L2.84239 5.89329V7.81898L5.70139 9.46246V12.7494L7.3636 13.7123L9.02581 12.7494V9.46246L11.8848 7.81898V5.89329ZM11.8848 11.1059V9.18025L10.2226 10.1431V12.0688L11.8848 11.1059ZM13.065 11.7866L10.206 13.4301V15.3557L14.7272 12.7494V7.53677L13.065 8.49961V11.7866ZM11.4028 4.24981L13.065 5.21265V7.13835L14.7272 6.1755V4.24981L13.065 3.28696L11.4028 4.24981ZM5.70139 14.1273V16.053L7.3636 17.0158L9.02581 16.053V14.1273L7.3636 15.0901L5.70139 14.1273ZM2.84239 11.1059L4.5046 12.0688V10.1431L2.84239 9.18025V11.1059ZM5.70139 4.24981L7.3636 5.21265L9.02581 4.24981L7.3636 3.28696L5.70139 4.24981ZM1.66221 5.21265L3.32442 4.24981L1.66221 3.28696L0 4.24981V6.1755L1.66221 7.13835V5.21265ZM1.66221 8.49961L0 7.53677V12.7494L4.5212 15.3557V13.4301L1.66221 11.7866V8.49961Z" fill="#F0B90B"></path><path d="M27.8311 10.6785V10.6515C27.8311 9.37981 27.1539 8.74398 26.0567 8.3246C26.7339 7.94581 27.3029 7.35056 27.3029 6.28183V6.25477C27.3029 4.76666 26.1108 3.80615 24.1738 3.80615H19.7715V13.276H24.2822C26.4224 13.276 27.8311 12.4101 27.8311 10.6785ZM25.2304 6.63356C25.2304 7.33704 24.6479 7.63466 23.7268 7.63466H21.8033V5.63247H23.8623C24.7427 5.63247 25.2304 5.98421 25.2304 6.60651V6.63356ZM25.7587 10.4215C25.7587 11.125 25.2033 11.4496 24.2822 11.4496H21.8033V9.36628H24.2145C25.2846 9.36628 25.7587 9.7586 25.7587 10.3944V10.4215Z" fill="#F0B90B"></path><path d="M38.1079 13.276V3.80615H36.049V9.63684L31.606 3.80615H29.6825V13.276H31.7415V7.25587L36.3335 13.276H38.1079Z" fill="#F0B90B"></path><path d="M48.5792 10.6785V10.6515C48.5792 9.37981 47.902 8.74398 46.8048 8.3246C47.482 7.94581 48.051 7.35056 48.051 6.28183V6.25477C48.051 4.76666 46.8589 3.80615 44.9219 3.80615H40.5196V13.276H45.0303C47.1705 13.276 48.5792 12.4101 48.5792 10.6785ZM45.9785 6.63356C45.9785 7.33704 45.396 7.63466 44.4749 7.63466H42.5514V5.63247H44.6104C45.4908 5.63247 45.9785 5.98421 45.9785 6.60651V6.63356ZM46.5068 10.4215C46.5068 11.125 45.9514 11.4496 45.0303 11.4496H42.5514V9.36628H44.9626C46.0327 9.36628 46.5068 9.7586 46.5068 10.3944V10.4215Z" fill="#F0B90B"></path><path d="M61.1516 11.603L60.0815 10.5207C59.2688 11.2783 58.5238 11.7518 57.3588 11.7518C55.5437 11.7518 54.2298 10.2366 54.2298 8.36973C54.2298 6.50283 55.5437 5.01472 57.3588 5.01472C58.4425 5.01472 59.2552 5.48821 60.0138 6.19168L61.0839 4.96061C60.1763 4.0948 59.1198 3.48602 57.3724 3.48602C54.5007 3.48602 52.4824 5.69113 52.4824 8.39679C52.4824 11.1295 54.5414 13.2805 57.3047 13.2805C59.0791 13.2805 60.1628 12.6311 61.1516 11.603Z" fill="#F0B90B"></path><path d="M69.2286 9.12732V13.1182H70.8947V3.64836H69.2286V7.58509H64.7044V3.64836H63.0383V13.1182H64.7044V9.12732H69.2286Z" fill="#F0B90B"></path><path d="M78.3688 3.58072H76.8246L72.6525 13.1182H74.3593L75.3345 10.8319H79.8181L80.7799 13.1182H82.5408L78.3688 3.58072ZM79.2086 9.3573H75.9441L77.5696 5.56938L79.2086 9.3573Z" fill="#F0B90B"></path><path d="M84.3971 3.64836V13.1182H86.0632V3.64836H84.3971Z" fill="#F0B90B"></path><path d="M95.3607 10.1961L90.2811 3.64836H88.7369V13.1182H90.3759V6.38108L95.6045 13.1182H96.9997V3.64836H95.3607V10.1961Z" fill="#F0B90B"></path></g><defs><clipPath id="clip0_24773_19400"><rect width="97" height="17.7606" fill="white"></rect></clipPath></defs></svg>